<svg width="500" height="500" viewBox="0 0 500 500" fill="none" xmlns="http://www.w3.org/2000/svg" xmlns:xlink="http://www.w3.org/1999/xlink">
<rect width="500" height="500" rx="100" fill="white"/>
<rect width="500" height="500" rx="100"/>
<path d="M186.972 208.844C162.032 208.844 147.756 226.904 147.756 254.08C147.756 282.116 163.924 297.424 187.144 297.424C208.988 297.424 222.232 285.384 222.232 265.26V264.744H184.22V245.308H242.7V316H224.124L222.748 301.552C215.868 311.184 201.592 317.892 184.564 317.892C149.304 317.892 124.708 292.264 124.708 253.564C124.708 215.38 149.648 188.204 187.488 188.204C216.212 188.204 238.4 204.888 242.012 230.516H218.792C214.836 215.724 202.108 208.844 186.972 208.844ZM288.491 316H266.475V190.268H288.491V242.212H344.219V190.268H366.235V316H344.219V262.68H288.491V316Z" fill="#1E1E1E"/>
</svg>
